<?xml version="1.0" standalone="no"?>
<!DOCTYPE svg PUBLIC "-//W3C//DTD SVG 20010904//EN"
 "http://www.w3.org/TR/2001/REC-SVG-20010904/DTD/svg10.dtd">
<svg version="1.0" xmlns="http://www.w3.org/2000/svg"
 width="225.000000pt" height="225.000000pt" viewBox="0 0 225.000000 225.000000"
 preserveAspectRatio="xMidYMid meet">

<g transform="translate(0.000000,225.000000) scale(0.100000,-0.100000)"
fill="#000000" stroke="none">
<path d="M234 1768 c-13 -42 -7 -202 10 -267 31 -121 124 -255 225 -325 23
-16 39 -31 37 -33 -8 -8 -197 55 -301 100 -55 24 -102 40 -103 36 -2 -5 13
-44 34 -87 26 -53 58 -97 104 -143 97 -98 179 -134 330 -146 l85 -7 -80 -37
c-44 -21 -124 -52 -177 -70 l-98 -32 28 -17 c199 -118 422 -94 570 64 l45 49
-29 20 c-92 65 -173 184 -221 326 -28 83 -39 102 -80 141 -113 105 -235 250
-336 398 -33 48 -36 50 -43 30z"/>
<path d="M1966 1734 c-69 -105 -168 -226 -277 -339 -97 -101 -108 -116 -129
-180 -40 -125 -87 -204 -173 -289 l-79 -78 54 -55 c62 -63 148 -109 235 -124
79 -14 182 5 284 52 l70 33 -118 41 c-65 23 -145 55 -177 72 l-59 30 84 6
c144 10 265 68 349 166 41 47 128 206 118 216 -2 3 -43 -12 -89 -34 -87 -40
-236 -93 -299 -106 l-35 -7 45 33 c117 85 205 213 235 340 15 64 18 198 6 253
l-6 29 -39 -59z"/>
<path d="M941 1665 c-85 -19 -166 -59 -191 -95 -49 -69 -2 -329 86 -476 45
-75 117 -149 171 -175 24 -11 43 -27 43 -34 0 -24 -50 -187 -71 -228 -11 -23
-57 -77 -102 -119 -79 -76 -80 -78 -63 -97 35 -38 177 -71 307 -71 152 0 309
46 309 91 0 11 -16 35 -37 52 -93 80 -145 166 -178 292 -22 86 -21 90 39 123
137 78 246 296 263 530 l6 83 -45 42 c-69 67 -148 89 -328 93 -102 3 -164 -1
-209 -11z m350 -76 c62 -12 126 -44 143 -71 30 -48 -96 -98 -265 -106 -135 -5
-232 8 -306 44 -64 31 -74 51 -37 81 78 62 287 86 465 52z"/>
</g>
</svg>
